<svg xmlns="http://www.w3.org/2000/svg" width="809.685" height="88.594" viewBox="0 0 809.685 88.594">
  <g id="logo" transform="translate(-155.041 -515.83)">
    <g id="Group_33" data-name="Group 33" transform="translate(-56 183)">
      <path id="Path_301" data-name="Path 301" d="M57.32,35.87c0-15,10.085-26.217,26.157-26.217,16.895,0,26.966,11.219,26.966,26.217a29.547,29.547,0,0,1-1.457,9.359L95.013,38.441,94.007,19.68,85.834,36.586l-18.718,1,16.869,8.2.873,16.275q-.682.025-1.381.025C67.392,62.087,57.32,50.868,57.32,35.87Z" transform="translate(249.359 340.988)" fill="#222"/>
      <path id="Path_302" data-name="Path 302" d="M70.74,42.068c10.972-.833,18.7-6.668,22.166-15.161l-15.232.818Z" transform="translate(264.85 360.904)" fill="#222"/>
      <path id="Path_303" data-name="Path 303" d="M57.32,35.87c0-15,10.085-26.217,26.157-26.217,16.895,0,26.966,11.219,26.966,26.217a29.547,29.547,0,0,1-1.457,9.359L95.013,38.441,94.007,19.68,85.834,36.586l-18.718,1,16.869,8.2.873,16.275q-.682.025-1.381.025C67.392,62.087,57.32,50.868,57.32,35.87Z" transform="translate(249.359 340.988)" fill="#222"/>
    </g>
    <path id="Path_304" data-name="Path 304" d="M33.961.879A31.433,31.433,0,0,1,17.794-3.195a28.007,28.007,0,0,1-10.859-11.6,38.366,38.366,0,0,1-3.894-17.85q0-10.635,4.065-18.18a28.628,28.628,0,0,1,11-11.54A30.667,30.667,0,0,1,33.7-66.357a32.343,32.343,0,0,1,10.341,1.6,27.692,27.692,0,0,1,8.512,4.566A24.9,24.9,0,0,1,58.627-53.2a24.149,24.149,0,0,1,3.037,8.881H47.637a14.565,14.565,0,0,0-1.877-4.122,12.067,12.067,0,0,0-2.971-3.09,13.12,13.12,0,0,0-3.973-1.934,17.089,17.089,0,0,0-4.909-.664,15.721,15.721,0,0,0-8.789,2.483,16.272,16.272,0,0,0-5.928,7.255A28.418,28.418,0,0,0,17.068-32.8,29.016,29.016,0,0,0,19.16-21.164a16.23,16.23,0,0,0,5.9,7.3,16,16,0,0,0,9,2.509,17.59,17.59,0,0,0,8-1.679,11.933,11.933,0,0,0,5.1-4.751,14.257,14.257,0,0,0,1.771-7.247l2.83.422H34.928V-35.015H62.314v8.244a28.715,28.715,0,0,1-3.639,14.805,24.53,24.53,0,0,1-10.05,9.519A31.379,31.379,0,0,1,33.961.879ZM68.6,0V-49.131H81.769V-40.5H82.3a12.69,12.69,0,0,1,4.5-6.939,11.913,11.913,0,0,1,7.273-2.342q1.02,0,2.2.114a13.948,13.948,0,0,1,2.074.342v12.076a12.969,12.969,0,0,0-2.641-.514,28.266,28.266,0,0,0-3.125-.189,10.928,10.928,0,0,0-5.343,1.3,9.5,9.5,0,0,0-3.7,3.586,10.322,10.322,0,0,0-1.34,5.313V0Zm93.7,0L148.94-49.131H162.7l7.629,33.03h.422l7.981-33.03H192.2l8.068,32.836h.422l7.471-32.836h13.763L208.564,0h-14.4L185.73-30.9h-.6L176.7,0Zm89.064-49.131v10.265H221.8V-49.131ZM228.494-60.82h13.588v45.7a5.129,5.129,0,0,0,1.108,3.625,4.664,4.664,0,0,0,3.533,1.173,12.289,12.289,0,0,0,1.745-.141,15.532,15.532,0,0,0,1.648-.317l2.162,10.2a31.831,31.831,0,0,1-4.324.967,28.185,28.185,0,0,1-4.122.308Q236.5.694,232.5-2.98t-4-10.327ZM271-28.371V0H257.415V-65.479h13.166v25.084h.6a14.27,14.27,0,0,1,5.387-6.851,16.235,16.235,0,0,1,9.29-2.5,17.434,17.434,0,0,1,8.934,2.224,15.2,15.2,0,0,1,5.942,6.359,21.464,21.464,0,0,1,2.123,9.909V0H289.232V-28.828a10.138,10.138,0,0,0-2.307-7.08,8.319,8.319,0,0,0-6.482-2.535,9.8,9.8,0,0,0-4.909,1.2,8.452,8.452,0,0,0-3.326,3.436A11.336,11.336,0,0,0,271-28.371ZM309.935,0V-49.131h12.9v8.736h.6a13.606,13.606,0,0,1,5.15-6.851,14.664,14.664,0,0,1,8.561-2.5,14.4,14.4,0,0,1,8.6,2.527,12.006,12.006,0,0,1,4.7,6.825h.527a13.225,13.225,0,0,1,5.454-6.8,16.779,16.779,0,0,1,9.329-2.553,15.063,15.063,0,0,1,11.18,4.36q4.324,4.36,4.324,12.358V0H367.644V-30.34q0-4.1-2.171-6.13a7.641,7.641,0,0,0-5.423-2.026,7.315,7.315,0,0,0-5.775,2.351,8.939,8.939,0,0,0-2.083,6.156V0H338.974V-30.657a7.886,7.886,0,0,0-2.048-5.717,7.167,7.167,0,0,0-5.405-2.122,7.557,7.557,0,0,0-4.1,1.134,7.938,7.938,0,0,0-2.856,3.151,10.189,10.189,0,0,0-1.046,4.751V0Zm92.4.932a20.435,20.435,0,0,1-8.389-1.648,13.1,13.1,0,0,1-5.814-4.9,14.581,14.581,0,0,1-2.109-8.095,14.375,14.375,0,0,1,1.485-6.873,12.11,12.11,0,0,1,4.078-4.46,20.325,20.325,0,0,1,5.9-2.593,41.048,41.048,0,0,1,6.974-1.226q4.272-.413,6.878-.8a9.4,9.4,0,0,0,3.8-1.2,2.7,2.7,0,0,0,1.191-2.378v-.211a5.9,5.9,0,0,0-1.9-4.68,7.869,7.869,0,0,0-5.361-1.666,9.684,9.684,0,0,0-5.854,1.6,7.5,7.5,0,0,0-2.883,4.043l-12.586-1.02a17.2,17.2,0,0,1,3.766-7.752,18.3,18.3,0,0,1,7.268-5.045,27.832,27.832,0,0,1,10.34-1.775,31.373,31.373,0,0,1,7.822.958,20.838,20.838,0,0,1,6.671,2.971,14.549,14.549,0,0,1,4.636,5.164,15.618,15.618,0,0,1,1.7,7.519V0H417.018V-6.838h-.352A13.978,13.978,0,0,1,413.5-2.8a14.415,14.415,0,0,1-4.742,2.738A18.968,18.968,0,0,1,402.34.932Zm3.884-9.4a11.265,11.265,0,0,0,5.3-1.2,9.266,9.266,0,0,0,3.6-3.256,8.409,8.409,0,0,0,1.305-4.61v-5.2a7.414,7.414,0,0,1-1.731.73,25.261,25.261,0,0,1-2.492.615q-1.376.273-2.734.475t-2.465.36a16.416,16.416,0,0,0-4.214,1.121,6.883,6.883,0,0,0-2.791,2.065,5.1,5.1,0,0,0-.993,3.212,4.889,4.889,0,0,0,2.026,4.25A8.708,8.708,0,0,0,406.224-8.473ZM437.035,0V-49.131H450.2V-40.5h.527a12.69,12.69,0,0,1,4.5-6.939,11.913,11.913,0,0,1,7.273-2.342q1.02,0,2.2.114a13.947,13.947,0,0,1,2.074.342v12.076a12.969,12.969,0,0,0-2.641-.514,28.265,28.265,0,0,0-3.125-.189,10.928,10.928,0,0,0-5.344,1.3,9.5,9.5,0,0,0-3.7,3.586,10.322,10.322,0,0,0-1.34,5.313V0ZM482.3-14.133l.035-16.33h2l15.7-18.668h15.644L494.565-24.4h-3.287ZM469.991,0V-65.479h13.588V0Zm30.639,0L486.215-21.357l9.053-9.65L516.573,0Zm38.176.949a26.234,26.234,0,0,1-13.029-3.072,20.643,20.643,0,0,1-8.407-8.749,29.013,29.013,0,0,1-2.927-13.456,28.847,28.847,0,0,1,2.922-13.3,21.664,21.664,0,0,1,8.248-8.916,23.894,23.894,0,0,1,12.542-3.2,26.121,26.121,0,0,1,9.092,1.551,20.524,20.524,0,0,1,7.378,4.658,21.244,21.244,0,0,1,4.931,7.783A30.924,30.924,0,0,1,561.323-24.8v3.727H519.856v-8.4h34.875l-6.345,2.2a16.946,16.946,0,0,0-1.143-6.517,9.34,9.34,0,0,0-3.393-4.28,9.738,9.738,0,0,0-5.59-1.525,10.039,10.039,0,0,0-5.66,1.534,9.766,9.766,0,0,0-3.534,4.184,14.457,14.457,0,0,0-1.213,6.078v5.942a15.325,15.325,0,0,0,1.393,6.811,10.13,10.13,0,0,0,3.916,4.351,11.167,11.167,0,0,0,5.854,1.512,12.4,12.4,0,0,0,4.109-.646,8.705,8.705,0,0,0,3.186-1.92,8.189,8.189,0,0,0,2.022-3.112l12.568.844a17.362,17.362,0,0,1-3.871,7.906A19.166,19.166,0,0,1,549.5-.9,28.615,28.615,0,0,1,538.805.949Zm53.487-50.08v10.265H562.726V-49.131ZM569.422-60.82h13.588v45.7a5.129,5.129,0,0,0,1.108,3.625,4.664,4.664,0,0,0,3.533,1.173,12.289,12.289,0,0,0,1.745-.141,15.53,15.53,0,0,0,1.648-.317l2.162,10.2a31.832,31.832,0,0,1-4.324.967,28.186,28.186,0,0,1-4.122.308q-7.33,0-11.333-3.674t-4-10.327ZM597.342,0V-49.131h13.579V0Zm6.768-55.415a7.307,7.307,0,0,1-5.186-2.021,6.449,6.449,0,0,1-2.153-4.878,6.381,6.381,0,0,1,2.153-4.856,7.351,7.351,0,0,1,5.186-2,7.406,7.406,0,0,1,5.229,2,6.381,6.381,0,0,1,2.153,4.856,6.449,6.449,0,0,1-2.153,4.878A7.362,7.362,0,0,1,604.11-55.415Zm27.48,27.044V0H618V-49.131h13.377v8.736h.492a14.32,14.32,0,0,1,5.3-6.842,15.712,15.712,0,0,1,9.136-2.509,17.3,17.3,0,0,1,8.925,2.232,15.132,15.132,0,0,1,5.9,6.381,21.631,21.631,0,0,1,2.1,9.879V0H649.642V-28.828a10.12,10.12,0,0,0-2.32-7.053,8.218,8.218,0,0,0-6.416-2.562,9.6,9.6,0,0,0-4.838,1.2,8.371,8.371,0,0,0-3.291,3.436A11.474,11.474,0,0,0,631.589-28.371ZM692.3,19.424q-9.932,0-15.57-3.938a15.638,15.638,0,0,1-6.842-9.756l12.568-1.688a8.028,8.028,0,0,0,1.8,2.769,8.856,8.856,0,0,0,3.3,2.048,14.483,14.483,0,0,0,5.054.774,12,12,0,0,0,7.33-2.144q2.9-2.144,2.9-7.19V-8.683h-.6a12.786,12.786,0,0,1-2.677,3.84,13.738,13.738,0,0,1-4.6,3,17.536,17.536,0,0,1-6.733,1.16,19.81,19.81,0,0,1-10.028-2.589,18.352,18.352,0,0,1-7.211-7.9q-2.694-5.308-2.694-13.456,0-8.376,2.738-13.952a19.694,19.694,0,0,1,7.273-8.372,18.585,18.585,0,0,1,9.941-2.795,15.456,15.456,0,0,1,6.9,1.384,14.034,14.034,0,0,1,4.548,3.45,17.657,17.657,0,0,1,2.668,4.078h.527v-8.3h13.377V.509a17.29,17.29,0,0,1-3.072,10.463,18.57,18.57,0,0,1-8.477,6.333A33.889,33.889,0,0,1,692.3,19.424Zm.264-30.357a8.922,8.922,0,0,0,7.616-3.652q2.7-3.652,2.7-10.112a21.266,21.266,0,0,0-1.2-7.5,10.906,10.906,0,0,0-3.5-4.953,8.949,8.949,0,0,0-5.621-1.767,8.86,8.86,0,0,0-5.669,1.82,11.07,11.07,0,0,0-3.476,5.023,21.387,21.387,0,0,0-1.174,7.378,20.478,20.478,0,0,0,1.182,7.3,10.214,10.214,0,0,0,3.494,4.781A9.342,9.342,0,0,0,692.564-10.933ZM733.078.844a7.522,7.522,0,0,1-5.5-2.206,7.358,7.358,0,0,1-2.232-5.449,7.358,7.358,0,0,1,2.232-5.449,7.522,7.522,0,0,1,5.5-2.206,7.523,7.523,0,0,1,5.5,2.206,7.358,7.358,0,0,1,2.233,5.449,7.358,7.358,0,0,1-2.233,5.449A7.523,7.523,0,0,1,733.078.844Zm30.793.088a20.435,20.435,0,0,1-8.389-1.648,13.1,13.1,0,0,1-5.814-4.9,14.581,14.581,0,0,1-2.109-8.095,14.374,14.374,0,0,1,1.485-6.873,12.11,12.11,0,0,1,4.078-4.46,20.326,20.326,0,0,1,5.9-2.593A41.048,41.048,0,0,1,766-28.863q4.272-.413,6.878-.8a9.4,9.4,0,0,0,3.8-1.2,2.7,2.7,0,0,0,1.191-2.378v-.211a5.9,5.9,0,0,0-1.9-4.68A7.869,7.869,0,0,0,770.6-39.8a9.684,9.684,0,0,0-5.854,1.6,7.5,7.5,0,0,0-2.883,4.043l-12.586-1.02a17.2,17.2,0,0,1,3.766-7.752,18.3,18.3,0,0,1,7.268-5.045,27.832,27.832,0,0,1,10.34-1.775,31.373,31.373,0,0,1,7.822.958,20.837,20.837,0,0,1,6.671,2.971,14.549,14.549,0,0,1,4.636,5.164,15.618,15.618,0,0,1,1.7,7.519V0H778.549V-6.838H778.2A13.978,13.978,0,0,1,775.029-2.8a14.414,14.414,0,0,1-4.742,2.738A18.968,18.968,0,0,1,763.871.932Zm3.884-9.4a11.265,11.265,0,0,0,5.3-1.2,9.266,9.266,0,0,0,3.6-3.256,8.41,8.41,0,0,0,1.305-4.61v-5.2a7.415,7.415,0,0,1-1.731.73,25.259,25.259,0,0,1-2.492.615q-1.376.273-2.734.475t-2.465.36a16.416,16.416,0,0,0-4.214,1.121,6.883,6.883,0,0,0-2.791,2.065,5.1,5.1,0,0,0-.993,3.212,4.888,4.888,0,0,0,2.026,4.25A8.708,8.708,0,0,0,767.756-8.473ZM798.575,0V-49.131h13.579V0Zm6.768-55.415a7.307,7.307,0,0,1-5.186-2.021A6.449,6.449,0,0,1,798-62.314a6.381,6.381,0,0,1,2.153-4.856,7.351,7.351,0,0,1,5.186-2,7.406,7.406,0,0,1,5.229,2,6.381,6.381,0,0,1,2.153,4.856,6.449,6.449,0,0,1-2.153,4.878A7.362,7.362,0,0,1,805.343-55.415Z" transform="translate(152 585)" fill="#222"/>
  </g>
</svg>
